# xmcd
#
# Track frame offsets:
#	150
#	13934
#	25849
#	29800
#	51402
#	53892
#	71214
#	74188
#	95040
#	110159
#	131528
#	135438
#	153641
#	157395
#	175498
#	180072
#	194452
#	239461
#	243738
#	262671
#	267197
#	293896
#	314253
#
# Disc length: 4438 seconds
#
# Revision: 1
# Processed by: cddbd v1.5.2PL0 Copyright (c) Steve Scherf et al.
# Submitted via: audiograbber 1.83.01
#
DISCID=6b115417
DTITLE=Beccy Cole - Live at Lizotte's
DYEAR=2008
DGENRE=Country
TTITLE0=Men Don't Dance
TTITLE1=Better Woman
TTITLE2=Intro to Blackwood Hill
TTITLE3=Blackwood Hill
TTITLE4=Intro to Lifeboat
TTITLE5=Lifeboat
TTITLE6=Intro to Sorry I Asked
TTITLE7=Sorry I Asked
TTITLE8=Intro to Girls Out Here
TTITLE9=Girls out Here
TTITLE10=Intro to Opposite Prayers
TTITLE11=Opposite Prayers
TTITLE12=Intro to Those Memories of You
TTITLE13=Those Memories of You
TTITLE14=Intro to Natural Woman
TTITLE15=Natural Woman
TTITLE16=Lazy Bones
TTITLE17=Intro to Galleries of Pink Galahs
TTITLE18=Galleries of Pink Galahs
TTITLE19=Intro to What's Up
TTITLE20=What's Up
TTITLE21=Say You Love Me
TTITLE22=Poster Girl (Wrong Side of the World)
EXTD=
EXTT0=
EXTT1=
EXTT2=
EXTT3=
EXTT4=
EXTT5=
EXTT6=
EXTT7=
EXTT8=
EXTT9=
EXTT10=
EXTT11=
EXTT12=
EXTT13=
EXTT14=
EXTT15=
EXTT16=
EXTT17=
EXTT18=
EXTT19=
EXTT20=
EXTT21=
EXTT22=
PLAYORDER=
